<svg xmlns="http://www.w3.org/2000/svg" version="1.1" xmlns:xlink="http://www.w3.org/1999/xlink" xmlns:svgjs="http://svgjs.dev/svgjs" viewBox="0 0 12.646913876512574 12.75093679252727"><g transform="matrix(1,0,0,1,3.592287626690208,3.7720805001639395)"><g><path d=" M -2.1551485236384 0.5082034713802548 L -1.5028620094312528 0.7538277848825824 L -1.5349306070334219 0.8389900127058971 L -1.8306587827715257 0.7276309265269366 L -1.9557615536371302 1.059857199903604 L -1.6600333778990264 1.1712162860825646 L -1.6921019755011955 1.2563785139058792 L -2.3443884897083422 1.0107542004035515 L -2.3123198921061734 0.9255919725802368 L -2.02595020294206 1.0334270370446732 L -1.9008474320764555 0.7012007636680061 L -2.1872171212405687 0.5933656992035695 L -2.1551485236384 0.5082034713802548 M -1.3548032787244404 0.14897617779026495 L -1.5044619468680729 0.41358585835670614 L -1.397114528868879 0.538635975705337 L -1.4443751609142366 0.6221969274631605 L -1.9235216222969616 0.06168674152144804 L -1.8718303059973516 -0.02970804946367145 L -1.1450578246269716 0.0929775663302781 L -1.192318456672329 0.17653851808810161 L -1.3548032787244404 0.14897617779026495 M -1.4320146002167138 0.13517719835637898 L -1.8004343362215987 0.07156196337221088 L -1.5560737593357776 0.3545246967206658 L -1.4320146002167138 0.13517719835637898 M -1.0883236504707967 -0.5571001360385124 Q -1.079141026981313 -0.47486766419283344 -1.1536614572869108 -0.37827208734239715 L -1.235511765983223 -0.27217530621159003 L -1.0051075621842316 -0.09442575523676253 L -1.060692473313817 -0.02237495611061744 L -1.6125540885986864 -0.4481187259712868 L -1.475118868772789 -0.626266306228239 Q -1.4030417312640961 -0.7196948149852183 -1.3203453841799229 -0.7335715645662245 Q -1.2376490370957496 -0.7474483141472308 -1.1663900049929687 -0.6924742262168717 Q -1.0975062739602806 -0.6393326078841913 -1.0883236504707967 -0.5571001360385124 M -1.1707600974969123 -0.532918899475622 Q -1.1748987740957881 -0.5815796778911992 -1.2231965625210064 -0.6188398930439981 Q -1.3253345085349924 -0.6976360857441795 -1.4157363420204716 -0.5804545662862731 L -1.4975866507167839 -0.474357785155466 L -1.2948942927355405 -0.3179870461535559 L -1.2130439840392282 -0.424083827284363 Q -1.166621420898036 -0.4842581210600446 -1.1707600974969123 -0.532918899475622 M -0.6346598915157204 -1.0323763216925503 Q -0.6363884845642347 -0.9496507998382119 -0.7229827141337009 -0.86371222057796 L -0.818094408906721 -0.769320666308503 L -0.6131097649334972 -0.5627721351223174 L -0.6777005427271154 -0.4986704079691787 L -1.168677507845112 -0.9933931785422762 L -1.0089750352784734 -1.151886459964872 Q -0.9252199607768588 -1.235007380888722 -0.8414163203149201 -1.2378709180940166 Q -0.7576126798529813 -1.240734455299311 -0.6942153672839431 -1.1768534662726555 Q -0.632931298467206 -1.115101843546889 -0.6346598915157204 -1.0323763216925503 M -0.719563147316709 -1.019263840829194 Q -0.7172564329813609 -1.068045795166583 -0.7602257226114869 -1.1113429099513161 Q -0.8510952039604418 -1.202905660889522 -0.9561439414709416 -1.098652302442659 L -1.0512556362439618 -1.004260748173202 L -0.870925502714253 -0.8225548238307158 L -0.7758138079412328 -0.9169463781001728 Q -0.7218698616520571 -0.9704818864918051 -0.719563147316709 -1.019263840829194 M -0.267820808040157 -1.770698341643462 L -0.18638385989782827 -1.2877355858565755 L -0.027437966581886908 -1.0781999015495884 L -0.09993890677936157 -1.023203413748255 L -0.2588848000953029 -1.2327390980552422 L -0.7028264492250049 -1.440719414835462 L -0.6223583727420935 -1.501759472724854 L -0.27198560452411213 -1.324468967363544 L -0.34828888452306844 -1.7096582837540701 L -0.267820808040157 -1.770698341643462 M 0.7094330900840291 -2.295969362921286 L 1.0059641550996234 -1.6651933904233496 L 0.9236103337261483 -1.6264784307154312 L 0.7891715725426076 -1.9124543379024437 L 0.4679011704812484 -1.7614234511297953 L 0.602339931664789 -1.4754475439427825 L 0.5199861102913139 -1.4367325842348642 L 0.22345504527571947 -2.0675085567328004 L 0.30580886664919466 -2.1062235164407186 L 0.43599323665604095 -1.8292974797343078 L 0.7572636387174002 -1.9803283665069564 L 0.6270792687105539 -2.2572544032133672 L 0.7094330900840291 -2.295969362921286 M 1.3044090752638462 -1.8090536479195294 Q 1.2151095938442913 -1.8313213963058965 1.1483741206263638 -1.8972825713589478 Q 1.081638647408436 -1.9632437464119992 1.0541620007409354 -2.0614732424297904 Q 1.0266853540734346 -2.159702738447582 1.0495120684011405 -2.250716150168061 Q 1.0723387827288464 -2.3417295618885388 1.1371247852587683 -2.407097932498437 Q 1.2019107877886903 -2.4724663031083343 1.2953251124330607 -2.4985960553313498 Q 1.3897024713521153 -2.5249951864432623 1.4790019527716702 -2.502727438056895 Q 1.5683014341912251 -2.4804596896705275 1.6344207008273621 -2.41484534231037 Q 1.7005399674634991 -2.3492309949502124 1.7282859930198968 -2.2500384646577367 Q 1.7560320185762945 -2.150845934365261 1.7335521319414824 -2.0604487292265734 Q 1.7110722453066702 -1.9700515240878855 1.6462862427767482 -1.9046831534779878 Q 1.5815002402468261 -1.83931478286809 1.4871228813277717 -1.8129156517561775 Q 1.3937085566834013 -1.7867858995331622 1.3044090752638462 -1.8090536479195294 M 1.5833220740033795 -1.9571618486854598 Q 1.6305006968499067 -2.005663679025202 1.6457914750513134 -2.07535903110836 Q 1.6610822532527199 -2.1450543831915185 1.6387238054742634 -2.2249862279903097 Q 1.6160959788069098 -2.305881107063785 1.5669981500489216 -2.357046556453498 Q 1.517900321290933 -2.40821200584321 1.4528854511367475 -2.4253311956264447 Q 1.387870580982562 -2.4424503854096784 1.316606044655929 -2.4225163476312956 Q 1.2453415083292958 -2.402582309852913 1.1986444026201106 -2.354215168957619 Q 1.1519472969109255 -2.3058480280623255 1.1365218292650705 -2.236634193116509 Q 1.1210963616192153 -2.167420358170693 1.1437241882865687 -2.086525479097218 Q 1.1660826360650254 -2.0065936342984267 1.2153151542674623 -1.9549466677713718 Q 1.2645476724698992 -1.903299701244317 1.330044059761427 -1.8863152009055315 Q 1.3955404470529547 -1.869330700566746 1.4658419491049033 -1.8889953594562319 Q 1.5361434511568521 -1.9086600183457176 1.5833220740033795 -1.9571618486854598 M 2.6171601981269266 -2.69314897462571 L 2.677825126326927 -2.0038132316916237 L 2.5871754838312597 -1.995835618301161 L 2.541939785924901 -2.5098489757491214 L 2.3580610027982543 -1.9756724196219702 L 2.2943074080760266 -1.970061790424282 L 2.0188734131379134 -2.4648204330293724 L 2.064196777125486 -1.9498109256638774 L 1.9735471346298188 -1.9418333122734148 L 1.912882206429818 -2.631169055207501 L 2.010504898348229 -2.639760331166461 L 2.3156642756914754 -2.0924050951273028 L 2.5205336561260503 -2.684645364747964 L 2.6171601981269266 -2.69314897462571 M 2.9977821932404862 -2.6076022471862284 L 2.9820254754183755 -2.3751356348663637 L 3.2354440141705028 -2.3579587836783116 L 3.230372109292141 -2.2831304749916597 L 2.9769535705400134 -2.300307326179712 L 2.9607234749292557 -2.060856738382426 L 3.244073337156044 -2.041651125243029 L 3.239001432277682 -1.9668228165563775 L 2.864859888844423 -1.9921823409481865 L 2.9120624169123768 -2.6885844671252928 L 3.286203960345636 -2.6632249427334838 L 3.2811320554672743 -2.588396634046832 L 2.9977821932404862 -2.6076022471862284 M 3.8618229737153906 -2.4064323828449017 Q 3.9284335679441598 -2.472168816703838 4.017508732034391 -2.494571163507206 Q 4.106583896124622 -2.516973510310575 4.199855479982195 -2.49033872770024 Q 4.309473630082847 -2.4590359934984036 4.376104264972799 -2.38281028593093 Q 4.44273489986275 -2.3065845783634567 4.452502721788539 -2.1987579135034783 L 4.347692385288792 -2.228687720766638 Q 4.33710594583087 -2.2972291483823777 4.294036680764 -2.344887184500117 Q 4.25096741569713 -2.392545220617856 4.177888648963362 -2.4134137100857473 Q 4.107694570390137 -2.433458443390432 4.042588029436626 -2.4166912633929263 Q 3.977481488483115 -2.3999240833954203 3.9285883319836734 -2.348887731179366 Q 3.8796951754842324 -2.297851378963312 3.856630002914458 -2.2170801104680944 Q 3.8338394157324194 -2.1372704046930577 3.8484093987649346 -2.0681114168864667 Q 3.86297938179745 -1.9989524290798755 3.9094141163849536 -1.9503333441050623 Q 3.955848850972457 -1.9017142591302492 4.026042929545682 -1.8816695258255645 Q 4.09912169627945 -1.8608010363576735 4.1607254750184595 -1.8780484838521627 Q 4.2223292537574695 -1.895295931346652 4.2675134520700535 -1.9479114064737384 L 4.3723237885698 -1.917981599210579 Q 4.307364303709194 -1.8325341573141436 4.210666568862216 -1.80346874702178 Q 4.113968834015237 -1.7744033367294163 4.004350683914585 -1.8057060709312527 Q 3.911079100057012 -1.8323408535415873 3.8471284989445707 -1.897921495634795 Q 3.7831778978321293 -1.9635021377280029 3.7611874291103637 -2.0540196458985056 Q 3.739196960388598 -2.1445371540690084 3.76720466993761 -2.242616551527487 Q 3.7952123794866215 -2.3406959489859656 3.8618229737153906 -2.4064323828449017 M 4.582905933849659 -1.6846727827106502 L 4.806171495858986 -1.5862426611997045 L 4.776319737695831 -1.5185309743608102 L 4.469787101330566 -1.653670690369691 L 4.750958391056506 -2.291441578568464 L 4.834225465412444 -2.254731984070529 L 4.582905933849659 -1.6846727827106502 M 5.28187862468754 -1.95294688265432 L 5.165235253995911 -1.7512458066192742 L 5.385115396969738 -1.624089514105653 L 5.347569247605479 -1.5591642750385784 L 5.127689104631653 -1.6863205675521995 L 5.007541426666027 -1.4785598025375604 L 5.253391665266683 -1.3363850502782357 L 5.215845515902425 -1.271459811211161 L 4.891219320567051 -1.4591905580324522 L 5.240648817317081 -2.063428116283361 L 5.565275012652455 -1.87569736946207 L 5.527728863288196 -1.8107721303949953 L 5.28187862468754 -1.95294688265432 M 5.780392037888852 -1.049942426041471 L 5.540150282889829 -1.236221515461055 L 5.400917397560945 -1.1480444002723973 L 5.325051580192833 -1.2068693758785818 L 5.948842143441271 -1.6001101840384104 L 6.031820381187645 -1.535770366969146 L 5.805535090190879 -0.8343111970394139 L 5.729669272822766 -0.8931361726455983 L 5.780392037888852 -1.049942426041471 M 5.8051892977147554 -1.124354091156066 L 5.921306989641784 -1.4797365353222625 L 5.60604152712346 -1.2787696521223 L 5.8051892977147554 -1.124354091156066 M 6.2855921654200895 -0.33751868840048455 L 6.223199845477625 -0.4037621666620999 L 6.376271728293607 -1.0507165689897835 L 5.97225930592881 -0.6701919803296956 L 5.909866985986345 -0.7364354585913109 L 6.417976302762252 -1.2150051214467008 L 6.480368622704717 -1.1487616431850856 L 6.328024690199301 -0.5024928707468794 L 6.731309162253531 -0.8823318295174898 L 6.793701482195996 -0.8160883512558743 L 6.2855921654200895 -0.33751868840048455 M 7.0081415087323915 -0.533282423474765 L 6.451572435211998 -0.11371137299505144 L 6.3967934314908295 -0.18637677570718322 L 6.953362505011223 -0.6059478261868967 L 7.0081415087323915 -0.533282423474765 M 6.8464159365233455 0.5057326662841568 L 6.799906483743478 0.42751584710747786 L 7.089883131277823 -0.17072703323857577 L 6.6128464868486265 0.11292951942984616 L 6.566337034068759 0.034712700253167236 L 7.16628582291845 -0.32203013535504627 L 7.212795275698318 -0.24381331617836735 L 6.923678153649432 0.35391847127999543 L 7.399855272593169 0.07077301149926435 L 7.446364725373036 0.1489898306759433 L 6.8464159365233455 0.5057326662841568 M 7.5838970882679515 0.9871393764464194 Q 7.630310015563868 0.9380696283339218 7.641690044353885 0.8746839442661578 Q 7.653070073143901 0.8112982601983938 7.62671070855392 0.7432234197768957 Q 7.600351343963938 0.6751485793553975 7.547987919544292 0.6326918745486406 Q 7.495624495124647 0.5902351697418837 7.42524482060262 0.5815632948480982 Q 7.354865146080592 0.5728914199543128 7.278397517113978 0.6025005692197715 Q 7.2019298881473635 0.6321097184852302 7.156209321128617 0.6857369480564499 Q 7.110488754109871 0.7393641776276696 7.100372530471429 0.8060137239074233 Q 7.090256306832987 0.872663270187177 7.116615671422968 0.9407381106086752 Q 7.153446564411709 1.0358563807866588 7.234162774393218 1.0753771784281656 Q 7.314878984374728 1.1148979760696722 7.415834277721654 1.087602761374856 L 7.315452039968025 0.8283588485368222 L 7.3844594124500915 0.8016383967606765 L 7.519867107261641 1.1513379194738516 L 7.454589863021848 1.1766140225053408 Q 7.371503408323647 1.2002072640309083 7.288217355429452 1.183128523055494 Q 7.204931302535256 1.16604978208008 7.139149683059355 1.1110949957632563 Q 7.0733680635834535 1.0561402094464327 7.040148042456353 0.9703472598741338 Q 7.005122585398433 0.8798916499989926 7.018665819261168 0.7888596181830473 Q 7.0322090531239025 0.697827586367102 7.090953595873317 0.6252167834713737 Q 7.14969813862273 0.5526059805756454 7.244816408800713 0.515775087586904 Q 7.339934678978698 0.47894419459816273 7.432726596071659 0.4928783297422198 Q 7.525518513164622 0.5068124648862768 7.596835696813617 0.5649855627612863 Q 7.668152880462613 0.6231586606362957 7.703178337520534 0.713614270511437 Q 7.743259015184752 0.8171253292345367 7.722842706270519 0.9167166156521678 Q 7.702426397356287 1.016307902069799 7.6232555915598414 1.0887853710483821 L 7.5838970882679515 0.9871393764464194" fill="#343432" fill-rule="nonzero"></path></g><g><path d=" M -2.4272445099090185 3.727576950413759 Q -2.4296057417196404 3.717859719103529 -2.4251516860239346 3.711164137773491 Q -2.4206976303282293 3.704468556443453 -2.411863783682566 3.7023219820701603 L -1.8341302130561843 3.5619360180568265 Q -1.8252963664105208 3.5597894436835342 -1.8182664214668642 3.563694478328292 Q -1.8112364765232076 3.56759951297305 -1.8088752447125858 3.5773167442832796 L -1.7974984005341352 3.624136131505295 Q -1.7953518261608425 3.6329699781509586 -1.7996985531378835 3.6401072518132795 Q -1.8040452801149245 3.647244525475601 -1.812879126760588 3.6493910998488936 L -2.334076078854724 3.7760389878731546 L -2.262809809661411 4.069322696509177 Q -2.2604485778507892 4.079039927819407 -2.2647953048278304 4.086177201481728 Q -2.269142031804871 4.09331447514405 -2.278859263115101 4.095675706954672 L -2.3141946496977543 4.1042620044478415 Q -2.3230284963434173 4.106408578821134 -2.3301657700057388 4.102061851844093 Q -2.33730304366806 4.097715124867052 -2.339664275478682 4.087997893556823 L -2.4272445099090185 3.727576950413759 M -2.266829175682343 4.316940002077875 Q -2.2703329777974632 4.307573926552979 -2.266709643413726 4.3003947295622815 Q -2.2630863090299886 4.293215532571585 -2.2545716949164456 4.290030257921476 L -1.6985673933020937 4.082031823269333 Q -1.6892013177771963 4.078528021154213 -1.6817556538133278 4.0815663610997674 Q -1.6743099898494593 4.084604701045322 -1.670806187734339 4.093970776570219 L -1.5392543446848217 4.445624339459542 Q -1.5357505425697013 4.454990414984438 -1.5393738769534386 4.462169611975136 Q -1.542997211337176 4.469348808965832 -1.5523632868620731 4.472852611080953 L -1.5847188204935363 4.484956654751368 Q -1.5940848960184333 4.4884604568664885 -1.6011048292766248 4.485262853188429 Q -1.6081247625348163 4.482065249510368 -1.6116285646499364 4.472699173985471 L -1.7199279027536554 4.183202294125012 L -1.906397951840245 4.252959808962408 L -1.8051062179667667 4.523724537773072 Q -1.8016024158516466 4.533090613297969 -1.805225750235384 4.540269810288667 Q -1.808849084619121 4.547449007279363 -1.8182151601440184 4.5509528093944835 L -1.849719232364127 4.562738325599888 Q -1.85823384647767 4.565923600249998 -1.8656795104415385 4.5628852603044425 Q -1.873125174405407 4.559846920358888 -1.8766289765205273 4.550480844833991 L -1.9779207103940055 4.279716116023327 L -2.1712024507714296 4.352021850580809 L -2.060354892947623 4.648330421732102 Q -2.056851090832503 4.657696497257 -2.060048694510563 4.664716430515191 Q -2.063246298188623 4.671736363773382 -2.0726123737135205 4.6752401658885026 L -2.105819368756338 4.687662737023929 Q -2.114333982869881 4.6908480116740385 -2.1217796468337493 4.687809671728484 Q -2.129225310797618 4.68477133178293 -2.132729112912738 4.675405256258032 L -2.266829175682343 4.316940002077875 M -2.0501206912987895 4.866000475387392 Q -2.053500214162617 4.859560647191211 -2.051204985163352 4.852196133896204 Q -2.0489097561640865 4.844831620601196 -2.042469927967905 4.841452097737369 Q -2.038445035345291 4.839339895947476 -2.0331927238401764 4.837610232324129 L -1.4076064096953234 4.763925994793689 Q -1.3978668630181823 4.762921505311995 -1.390079909365197 4.766021712835784 Q -1.3822929557122112 4.769121920359572 -1.3763787907005127 4.78039161970289 L -1.3476528463579767 4.835130159370434 Q -1.341738681346278 4.846399858713752 -1.343611469987565 4.854569350533281 Q -1.345484258628852 4.862738842352811 -1.351844282442165 4.870183160030686 L -1.7683226193876749 5.342331767199866 Q -1.7723076098188544 5.346476366396782 -1.7763325024414678 5.348588568186675 Q -1.7827723306376495 5.3519680910505025 -1.7901368439326566 5.3496728620512375 Q -1.7975013572276637 5.347377633051972 -1.8008808800914915 5.34093780485579 L -1.8224253383483935 5.299883900105132 Q -1.827494622644135 5.29022415781086 -1.8249881734658804 5.283262133778114 Q -1.822481724287626 5.276300109745368 -1.8193017123809692 5.27257795090643 L -1.7282289815875607 5.1683176012247385 L -1.8667894190044991 4.90428464518129 L -2.0043305891755394 4.919997357165484 Q -2.0087779221561317 4.921304580430854 -2.0161424354511386 4.919009351431589 Q -2.023506948746146 4.916714122432323 -2.0285762330418873 4.90705438013805 L -2.0501206912987895 4.866000475387392 M -1.7853104955141705 4.8912991516063 L -1.6712515988599832 5.108643353227431 L -1.4425136709815156 4.850004925334509 L -1.7853104955141705 4.8912991516063 M -1.5956360439373132 5.644412640268748 Q -1.6034857841246772 5.6332622146170515 -1.6027304382600582 5.623280427993653 Q -1.6019750923954392 5.613298641370255 -1.5956713319365363 5.603302040669798 L -1.2343892231192704 5.1010401832828975 Q -1.2309756848835733 5.096413563787726 -1.2272588763330077 5.093796983725271 Q -1.2213119826521026 5.089610455625344 -1.2137119163164782 5.090930729811077 Q -1.2061118499808539 5.09225100399681 -1.2019253218809265 5.098197897677715 L -1.1747128892313976 5.136852706603598 Q -1.1684330970815064 5.145773047124956 -1.1698633941160508 5.154006452321882 Q -1.171293691150595 5.162239857518808 -1.1739638676761788 5.16634316100149 L -1.4934033348745928 5.6080188735559116 L -0.9693473067922229 5.456997589655725 Q -0.9645838662166752 5.455867733013497 -0.9566121190259943 5.456926349192984 Q -0.9486403718353134 5.4579849653724715 -0.9423605796854221 5.466905305893829 L -0.9151481470358934 5.505560114819712 Q -0.9109616189359659 5.511507008500617 -0.9120202351154536 5.519478755691298 Q -0.9130788512949414 5.52745050288198 -0.9190257449758464 5.531637030981907 Q -0.9227425535264121 5.534253611044361 -0.9282493558120728 5.5359067836990805 L -1.5234537222127873 5.70588595666541 Q -1.5344673267841085 5.709192301974849 -1.5441190448610733 5.706536939526324 Q -1.5537707629380384 5.7038815770778 -1.5616205031254025 5.692731151426102 L -1.5956360439373132 5.644412640268748 M -1.2723357748783037 6.0670971795313235 Q -1.279093735013728 6.059726292555659 -1.2784243709656122 6.051712468670728 Q -1.2777550069174965 6.043698644785797 -1.2710542005759835 6.037555044662684 L -0.8334915464751876 5.636377956623409 Q -0.8261206594995234 5.6296199964879845 -0.8180789753036722 5.629647140212869 Q -0.8100372911078211 5.629674283937753 -0.8032793309723968 5.637045170913417 L -0.5495486458878324 5.913788472817902 Q -0.5427906857524081 5.921159359793567 -0.5434600498005238 5.929173183678498 Q -0.5441294138486394 5.93718700756343 -0.5515003008243037 5.943944967698854 L -0.5769633649220529 5.967290648166683 Q -0.5843342518977171 5.974048608302107 -0.5920408957764927 5.973714284571067 Q -0.5997475396552683 5.973379960840027 -0.6065054997906925 5.966009073864362 L -0.8153879039765324 5.738181658252922 L -0.9621355628556661 5.872726500949096 L -0.7667690789406747 6.085812142609208 Q -0.7600111188052504 6.093183029584872 -0.7606804828533661 6.101196853469803 Q -0.7613498469014817 6.109210677354734 -0.768720733877146 6.115968637490158 L -0.7935137173407439 6.1386999579456765 Q -0.8002145236822569 6.144843558068789 -0.8082562078781081 6.144816414343905 Q -0.8162978920739592 6.144789270619021 -0.8230558522093835 6.1374183836433565 L -1.018422336124375 5.924332741983244 L -1.170530640076719 6.063792464777908 L -0.9567333557923887 6.296980525462559 Q -0.9499753956569645 6.304351412438223 -0.9503097193880046 6.312058056316999 Q -0.9506440431190446 6.319764700195774 -0.9580149300947087 6.326522660331198 L -0.9841480748266094 6.350482700811339 Q -0.9908488811681222 6.356626300934452 -0.9988905653639735 6.356599157209567 Q -1.0069322495598247 6.3565720134846835 -1.013690209695249 6.349201126509019 L -1.2723357748783037 6.0670971795313235 M -0.517815676144938 6.78476996278745 Q -0.5249995139748338 6.7791988675510595 -0.5260477966606125 6.7709081610579736 Q -0.527096079346391 6.762617454564888 -0.5215249841100007 6.755433616734991 L -0.19394458421025074 6.333023952337115 L -0.3318742705442511 6.226058923798421 Q -0.339058108374147 6.220487828562031 -0.3401063910599256 6.212197122068945 Q -0.34115467374570424 6.203906415575859 -0.3355835785093139 6.196722577745963 L -0.31218497851647464 6.1665504588604 Q -0.3060567737564453 6.158648237247515 -0.29776606726335925 6.157599954561737 Q -0.2894753607702733 6.156551671875958 -0.2822915229403774 6.162122767112348 L 0.0639694604606027 6.430649557506361 Q 0.07187168207348815 6.436777762266391 0.07291996475926688 6.445068468759477 Q 0.07396824744504538 6.4533591752525625 0.06784004268501609 6.4612613968654475 L 0.04444144269217687 6.491433515751011 Q 0.03887034745578655 6.498617353580906 0.030579640962700494 6.499665636266685 Q 0.02228893446961444 6.500713918952464 0.01438671285672899 6.494585714192434 L -0.12282458969428178 6.388177795177379 L -0.4504049895940318 6.810587459575255 Q -0.4559760848304221 6.817771297405152 -0.4642667913235081 6.8188195800909295 Q -0.4725574978165941 6.819867862776708 -0.4804597194294795 6.813739658016679 L -0.517815676144938 6.78476996278745 M -0.11746338420343576 7.074748288955718 Q -0.12610235634751535 7.069711607479406 -0.127838302099193 7.061859479498099 Q -0.12957424785087068 7.054007351516791 -0.12499544650876955 7.0461537404767185 L 0.17400028113043475 6.533312939559994 Q 0.179036962606746 6.524673967415914 0.1867253501031551 6.522316401045128 Q 0.19441373759956426 6.519958834674342 0.20305270974364387 6.5249955161506525 L 0.24310612604801285 6.548347402995368 Q 0.25174509819209245 6.55338408447168 0.2538737244957737 6.561465152520093 Q 0.2560023507994551 6.569546220568506 0.2509656693231438 6.578185192712585 L 0.1245907522811524 6.7949448574185825 L 0.3947549720596414 6.952455623586861 L 0.5211298891016327 6.735695958880864 Q 0.526166570577944 6.727056986736785 0.5342476386263568 6.724928360433103 Q 0.5423287066747695 6.722799734129422 0.5501823177148419 6.727378535471523 L 0.5902357340192109 6.750730422316239 Q 0.5988747061632905 6.75576710379255 0.6010033324669718 6.763848171840963 Q 0.6031319587706532 6.771929239889376 0.5980952772943419 6.780568212033455 L 0.2990995496551375 7.29340901295018 Q 0.29452074831303643 7.301262623990253 0.2864396802646237 7.3033912502939335 Q 0.2783586122162109 7.305519876597615 0.2697196400721313 7.300483195121304 L 0.2296662237677623 7.277131308276588 Q 0.22181261272768993 7.2725525069344865 0.21968398642400866 7.2644714388860745 Q 0.21755536012032733 7.256390370837662 0.22213416146242848 7.248536759797589 L 0.3535457599807311 7.023138122947512 L 0.0833815402022422 6.865627356779234 L -0.04803005831606047 7.09102599362931 Q -0.052608859658161616 7.098879604669382 -0.06068992770657439 7.101008230973063 Q -0.06877099575498716 7.103136857276745 -0.07740996789906676 7.098100175800433 L -0.11746338420343576 7.074748288955718 M 0.5487255481136364 7.435318551353494 Q 0.5394894260269031 7.431485269626441 0.5367166622728525 7.423936680178615 Q 0.5339438985188019 7.4163880907307895 0.5374287000888498 7.407991616106487 L 0.7649862426129839 6.859701823139499 Q 0.7688195243400366 6.850465701052766 0.7761225301351496 6.8470988734889975 Q 0.7834255359302627 6.843732045925229 0.7926616580169961 6.8475653276522825 L 1.139436060000711 6.991487632495264 Q 1.1486721820874441 6.995320914222317 1.1514449458414948 7.0028695036701425 Q 1.1542177095955455 7.010418093117969 1.1503844278684925 7.019654215204702 L 1.1371421819023102 7.0515608187770535 Q 1.1333089001752574 7.060796940863787 1.1261801344586468 7.0637439446963395 Q 1.1190513687420363 7.066690948528893 1.1098152466553028 7.06285766680184 L 0.8243351094290001 6.944374413420208 L 0.7480179550449491 7.128257207692444 L 1.0150258480977852 7.239073897619971 Q 1.0242619701845186 7.242907179347023 1.027034733938569 7.25045576879485 Q 1.0298074976926197 7.258004358242675 1.025974215965567 7.267240480329408 L 1.0130804501563895 7.298307436439329 Q 1.0095956485863413 7.306703911063632 1.0022926427912284 7.310070738627401 Q 0.9949896369961153 7.313437566191169 0.985753514909382 7.3096042844641165 L 0.7187456218565459 7.19878759453659 L 0.6396406262164565 7.389387568508268 L 0.9318379431422017 7.510658663145938 Q 0.9410740652289349 7.514491944872992 0.944021069061488 7.521620710589602 Q 0.946968072894041 7.528749476306213 0.9431347911669882 7.537985598392946 L 0.9295440650438009 7.570731849427728 Q 0.926059263473753 7.57912832405203 0.91875625767864 7.582495151615799 Q 0.911453251883527 7.585861979179567 0.9022171297967937 7.582028697452515 L 0.5487255481136364 7.435318551353494 M 1.631766412759912 7.798551292224087 Q 1.5499813943841583 7.781051232464428 1.5026662685156291 7.739318142896655 Q 1.4553511426471002 7.697585053328884 1.4393964478176533 7.6374612710085525 Q 1.4234417529882062 7.577337488688222 1.4361825115252191 7.504760459691319 Q 1.4430924836096788 7.468122570417781 1.4520327315303745 7.426341093638863 Q 1.4609729794510704 7.384559616859945 1.4700413227993434 7.346524228486056 Q 1.4881158868826012 7.275088507734349 1.5272771826976839 7.226758243947702 Q 1.5664384785127667 7.1784279801610555 1.6266884311601748 7.159711273538052 Q 1.6869383838075827 7.140994566915051 1.7687234021833365 7.1584946266747105 Q 1.8300621659651517 7.171619671494455 1.8726743379228221 7.198401393849255 Q 1.9152865098804923 7.225183116204056 1.9398689144636923 7.260192601527234 Q 1.964451319046892 7.295202086850412 1.9729391230714248 7.33374023143211 Q 1.9814269270959575 7.372278376013806 1.9752157045616725 7.409995450919252 Q 1.9743927097849205 7.418186377279485 1.9674731121979603 7.422283765560102 Q 1.9605535146109998 7.426381153840718 1.9525528062916324 7.424669191472925 L 1.9036595887843886 7.414207199225303 Q 1.8956588804650214 7.41249523685751 1.8908316813275854 7.406813981636678 Q 1.8860044821901494 7.401132726415846 1.8858104139482834 7.389005493609718 Q 1.8855349720881274 7.316432314813816 1.8497143022898404 7.281807115773369 Q 1.813893632491553 7.247181916732924 1.7525548687097379 7.234056871913179 Q 1.680548493835433 7.2186492106030435 1.6301120961971183 7.250156988074703 Q 1.5796756985588034 7.281664765546365 1.5579869916990943 7.369990870527848 Q 1.5397222095749707 7.442315558870596 1.5260303608336288 7.519337425822702 Q 1.5096754595201642 7.608804839049379 1.542802015439685 7.658193112362432 Q 1.5759285713592057 7.707581385675485 1.6479349462335109 7.72298904698562 Q 1.7092737100153261 7.736114091805365 1.7561270261838335 7.719179170565444 Q 1.802980342352341 7.702244249325523 1.832929798587572 7.636138483919061 Q 1.838069535891951 7.625152559358128 1.8447989154380455 7.621944138668552 Q 1.85152829498414 7.618735717978976 1.8595290033035072 7.620447680346769 L 1.9084222208107513 7.630909672594392 Q 1.9164229291301187 7.6326216349621845 1.9211550192471214 7.638747373978537 Q 1.9258871093641245 7.6448731129948895 1.923286179405291 7.652683603273391 Q 1.913519086506843 7.689639806015373 1.8899089482334737 7.72177458492142 Q 1.8662988099601046 7.753909363827466 1.8295424507614892 7.775793804330899 Q 1.7927860915628737 7.797678244834333 1.7429456340523006 7.8046772909390825 Q 1.6931051765417273 7.811676337043832 1.631766412759912 7.798551292224087 M 2.1268000285272883 7.872746069998979 Q 2.116836385606776 7.871894119441419 2.1119050966159647 7.865541811956992 Q 2.106973807625153 7.859189504472566 2.107748308132026 7.8501316472721 L 2.158400641281545 7.25774778636165 Q 2.1591751417884186 7.248689929161184 2.1651132814381655 7.243267022285006 Q 2.171051421087913 7.237844115408827 2.1810150640084247 7.238696065966388 L 2.2290217071708924 7.242800918652817 Q 2.238079564371358 7.24357541915969 2.243463746222193 7.249966451669461 Q 2.248847928073028 7.256357484179231 2.2480734275661547 7.265415341379697 L 2.202377897660625 7.799828916207167 L 2.503098756716083 7.825542333035362 Q 2.513062399636595 7.826394283592923 2.51844658148743 7.832785316102694 Q 2.523830763338265 7.839176348612464 2.5229788127807042 7.849139991532976 L 2.519880810753211 7.885371420334839 Q 2.5191063102463374 7.894429277535305 2.512715277736567 7.899813459386139 Q 2.506324245226797 7.905197641236974 2.4963606023062845 7.904345690679413 L 2.1268000285272883 7.872746069998979 M 2.736579850043309 7.908107848712522 Q 2.7265857333887684 7.90845082436098 2.7209317296031124 7.902732287600637 Q 2.7152777258174563 7.897013750840294 2.7149659297734043 7.887928190245257 L 2.694605648096803 7.294641083389348 Q 2.6942626724483456 7.284646966734808 2.6995113413767338 7.2785542747216025 Q 2.7047600103051224 7.272461582708398 2.714754126959663 7.27211860705994 L 3.089987779534686 7.259241430440589 Q 3.0999818961892265 7.258898454792131 3.1056358999748825 7.264616991552474 Q 3.1112899037605386 7.270335528312817 3.111632879408996 7.280329644967358 L 3.112817704376394 7.314854775228498 Q 3.1131606800248512 7.324848891883038 3.10789642129426 7.330487305866492 Q 3.1026321625636695 7.336125719849945 3.092638045909129 7.336468695498402 L 2.783728985677875 7.347069760996174 L 2.7905573190426156 7.546043538027481 L 3.0794781459647886 7.536128423826625 Q 3.089472262619329 7.535785448178167 3.095126266404985 7.54150398493851 Q 3.100780270190641 7.547222521698853 3.1011232458390983 7.557216638353394 L 3.102276891202091 7.59083321255503 Q 3.102588687246143 7.599918773150067 3.097340018317755 7.606011465163272 Q 3.0920913493893667 7.612104157176478 3.082097232734826 7.612447132824935 L 2.793176405812653 7.622362247025791 L 2.8002541760126354 7.8286044725331285 L 3.116431684719919 7.8177539702001155 Q 3.1264258013744595 7.8174109945516586 3.132064215357913 7.82267525328225 Q 3.1377026293413666 7.82793951201284 3.1380456049898235 7.837933628667381 L 3.139261609561627 7.873367314988025 Q 3.139573405605679 7.882452875583062 3.1343247366772906 7.888545567596267 Q 3.1290760677489025 7.894638259609472 3.119081951094362 7.894981235257929 L 2.736579850043309 7.908107848712522 M 3.3293218839584755 7.878001645623687 Q 3.3221472431005785 7.879192061745749 3.3158734503656095 7.874703893193871 Q 3.3095996576306406 7.870215724641994 3.308409241508579 7.863041083784098 Q 3.3076652314322907 7.858556933247912 3.307669249447982 7.853027150589231 L 3.4338082121710825 7.2358751714228955 Q 3.435907512447454 7.226311662289493 3.4412925111065684 7.219889067539267 Q 3.4466775097656823 7.21346647278904 3.4592331312670024 7.2113832445754324 L 3.5202175785591283 7.201264707537911 Q 3.5327732000604484 7.199181479324304 3.5399438229026545 7.203520845860923 Q 3.5471144457448602 7.207860212397542 3.5521897863263856 7.216233305408883 L 3.869981726685673 7.759728287022672 Q 3.8726681989916933 7.76481166363558 3.8734122090679817 7.769295814171766 Q 3.874602625190043 7.776470455029663 3.870114456638166 7.782744247764632 Q 3.8656262880862893 7.789018040499601 3.8584516472283923 7.790208456621662 L 3.8127133117592975 7.797797359399803 Q 3.801951350472452 7.799582983582895 3.7961259727911014 7.79502041402339 Q 3.790300595109751 7.790457844463884 3.7877629248189884 7.786271297958214 L 3.7173073827543566 7.6671055335697105 L 3.423147107580572 7.715912594574226 L 3.3949513378491183 7.851446580641072 Q 3.3947985178181694 7.856079533192516 3.3903103492662927 7.862353325927485 Q 3.385822180714416 7.868627118662454 3.37506021942757 7.870412742845546 L 3.3293218839584755 7.878001645623687 M 3.43635820737829 7.634469946909359 L 3.6785023363323197 7.594293402789789 L 3.504605556438832 7.2960069867803865 L 3.43635820737829 7.634469946909359 M 4.099225331930049 7.729125011358449 Q 4.089681727482555 7.732111583666255 4.082711332329309 7.728101220478811 Q 4.075740937176063 7.724090857291366 4.073025871441693 7.715414853248189 L 3.895732078987421 7.148871789228704 Q 3.8927455066796153 7.139328184781209 3.896186316378182 7.1320597427125225 Q 3.899627126076749 7.124791300643836 3.9091707305242442 7.121804728336031 L 3.9490803491228603 7.109315425957934 Q 3.959491553974673 7.106057347076693 3.9661904425544825 7.1092001098598185 Q 3.9728893311342914 7.1123428726429445 3.97457145125892 7.114674167282462 L 4.401083137945211 7.46701019110347 L 4.265329851226778 7.033209988944599 Q 4.262343278918973 7.023666384497105 4.26578408861754 7.0163979424284175 Q 4.269224898316107 7.009129500359731 4.278768502763602 7.006142928051926 L 4.320413322170854 6.993110612526956 Q 4.329956926618348 6.9901240402191505 4.337361121973753 6.9939986501198765 Q 4.344765317329158 6.997873260020603 4.347751889636964 7.007416864468097 L 4.5247741755178 7.5730923280832645 Q 4.527489241252169 7.581768332126442 4.523750384638161 7.589606327684006 Q 4.520011528024154 7.59744432324157 4.511335523980977 7.600159388975938 L 4.4696907045737255 7.613191704500908 Q 4.46014710012623 7.616178276808713 4.4537462584618615 7.61246596053671 Q 4.447345416797493 7.608753644264706 4.445067202841983 7.607561456602944 L 4.020780649427194 7.259291928230088 L 4.155447909851879 7.689621728771687 Q 4.158162975586248 7.698297732814864 4.154288365685522 7.705701928170269 Q 4.150413755784797 7.713106123525674 4.140870151337301 7.7160926958334795 L 4.099225331930049 7.729125011358449 M 4.77670102836016 7.492124820901603 Q 4.767502674660367 7.4960478668118 4.760167227331728 7.49275231921294 Q 4.7528317800030875 7.489456771614079 4.749265374630181 7.481094631886995 L 4.51602246324209 6.934210693735701 Q 4.5124560578691835 6.925848554008617 4.515155178213044 6.918273319962268 Q 4.517854298556905 6.91069808591592 4.527052652256698 6.906775040005723 L 4.571371992810243 6.887873091529317 Q 4.580570346510036 6.8839500456191205 4.587905793838675 6.8872455932179815 Q 4.595241241167315 6.8905411408168415 4.598807646540221 6.898903280543926 L 4.832050557928313 7.445787218695219 Q 4.835616963301219 7.4541493584223035 4.832917842957358 7.461724592468652 Q 4.830218722613497 7.469299826515001 4.821020368913705 7.473222872425198 L 4.77670102836016 7.492124820901603 M 5.082677342950237 7.356486051114497 Q 5.073915872239602 7.361306489993549 5.066288447059815 7.358758587598566 Q 5.058661021880028 7.356210685203583 5.054278804717254 7.348245711830279 L 4.768120023988042 6.82813295055348 Q 4.7632995851089905 6.819371479842844 4.765230127977169 6.811564916852531 Q 4.767160670845349 6.803758353862218 4.775922141555983 6.798937914983165 L 4.812561019073185 6.7787797160344 Q 4.822118987121151 6.77352105543907 4.82930819058466 6.775272460496723 Q 4.836497394048169 6.7770238655543755 4.838608556534332 6.778975135850089 L 5.326538747829577 7.039699168084499 L 5.1074278896908245 6.641450499419262 Q 5.102607450811772 6.6326890287086275 5.10453799367995 6.624882465718314 Q 5.10646853654813 6.617075902728001 5.115230007258765 6.612255463848948 L 5.153461879450628 6.591220821467628 Q 5.162223350161263 6.586400382588575 5.170249024009715 6.58872917412542 Q 5.178274697858167 6.591057965662264 5.1830951367372196 6.599819436372899 L 5.468815695750153 7.119135700312368 Q 5.473197912912927 7.127100673685672 5.471088232234222 7.13552459620279 Q 5.468978551555517 7.143948518719907 5.461013578182212 7.1483307358826815 L 5.422781705990349 7.169365378264002 Q 5.414020235279714 7.174185817143054 5.407010169626731 7.171817052558598 Q 5.400000103973748 7.1694482879741415 5.397530665866532 7.168731736732036 L 4.912588080490006 6.911551969468 L 5.129946051763649 7.306614648783915 Q 5.134328268926423 7.31457962215722 5.131999477389579 7.322605296005672 Q 5.129670685852735 7.330630969854123 5.1209092151421 7.335451408733176 L 5.082677342950237 7.356486051114497 M 5.897692633997315 6.859321472452745 Q 5.832937599749232 6.907829889570448 5.7702048764779805 6.917339457239572 Q 5.707472153206729 6.9268490249086945 5.651123348261506 6.9009076934642035 Q 5.594774543316283 6.8749663620197135 5.547716094737336 6.818212158585736 Q 5.523006820721302 6.786743472183511 5.496027420189546 6.750728031787105 Q 5.46904801965779 6.7147125913906995 5.44524887655612 6.68142624354484 Q 5.404011105212956 6.620311732954216 5.395227822005759 6.559306698189201 Q 5.386444538798561 6.4983016634241855 5.413841039551998 6.4408627816898 Q 5.441237540305434 6.383423899955416 5.505264989899045 6.335460521232293 Q 5.556195915712144 6.297307833611628 5.604931085636351 6.283517530182877 Q 5.653666255560558 6.269727226754125 5.694664012520117 6.273659772497086 Q 5.735661769479676 6.277592318240046 5.765653183299649 6.292609478327066 Q 5.7956445971196215 6.307626638414084 5.8099981416386175 6.325271216381324 Q 5.815631071844319 6.331274439876999 5.814263275087677 6.338546385844086 Q 5.8128954783310345 6.345818331811172 5.805619631786306 6.351268715756981 L 5.762692137172408 6.383425981037256 Q 5.75541629062768 6.388876364983065 5.749962006104228 6.388418699140788 Q 5.744507721580776 6.38796103329851 5.736146999017076 6.382865340332106 Q 5.7154277388677155 6.36885348486704 5.686886293586499 6.361837155594128 Q 5.6583448483052825 6.354820826321216 5.624250044215383 6.361619504135456 Q 5.590155240125485 6.368418181949696 5.551593253438424 6.3973052168624855 Q 5.493386481080596 6.44090828842896 5.481535276305642 6.498628790708468 Q 5.46968407153069 6.556349292987975 5.52073253397631 6.630560327359111 Q 5.567058197130595 6.696950476790938 5.617749368211716 6.760070395855278 Q 5.675163546287701 6.83064870772424 5.734524364521141 6.835591758859343 Q 5.793885182754581 6.8405348099944465 5.851364370457937 6.797476776822553 Q 5.889926357144997 6.768589741909763 5.9092203524140015 6.731418955445198 Q 5.928514347683007 6.694248168980632 5.923902324409827 6.65170006900454 Q 5.919290301136648 6.609151969028447 5.884952882278049 6.563314135796658 L 5.8620612697056504 6.532755580308797 L 5.752923571534723 6.614511339495937 Q 5.745647724989994 6.6199617234417465 5.737375675171145 6.618775172752449 Q 5.729103625352295 6.617588622063152 5.723108203011905 6.6095851908639505 L 5.705666974385315 6.586302481920819 Q 5.699671552044925 6.5782990507216175 5.700858102734222 6.570027000902768 Q 5.70204465342352 6.561754951083919 5.709320499968248 6.556304567138109 L 5.8737546318791125 6.4331258899628185 Q 5.881758063078314 6.427130467622429 5.889666320569926 6.4285895375090165 Q 5.89757457806154 6.430048607395604 5.90357000040193 6.4380520385948055 L 5.9558936862817 6.507900165424199 Q 6.000586834637335 6.567562107090973 6.009460090781932 6.630203557232278 Q 6.0183333469265285 6.692845007373583 5.990026715258727 6.752101550551603 Q 5.961720083590926 6.811358093729623 5.897692633997315 6.859321472452745 M 6.565584536480871 6.250791760183256 Q 6.559368890632891 6.257425791747219 6.551016600315128 6.257697742462609 Q 6.542664309997365 6.257969693177999 6.536030278433401 6.251754047330019 L 6.145949222472343 5.886274071468806 L 6.026608822191131 6.0136474774969075 Q 6.020393176343151 6.020281509060871 6.012040886025387 6.02055345977626 Q 6.003688595707624 6.02082541049165 5.997054564143661 6.01460976464367 L 5.969191631575014 5.988504052082154 Q 5.9618941968546535 5.9816668416493775 5.961622246139265 5.9733145513316135 Q 5.961350295423875 5.96496226101385 5.967565941271855 5.958328229449887 L 6.267160071144481 5.638567908066842 Q 6.273997281577259 5.631270473346483 6.282349571895022 5.630998522631093 Q 6.290701862212785 5.630726571915703 6.297999296933145 5.637563782348481 L 6.325862229501792 5.663669494909996 Q 6.332496261065756 5.669885140757977 6.332768211781145 5.67823743107574 Q 6.333040162496535 5.686589721393503 6.326202952063757 5.693887156113862 L 6.207484116367342 5.820597158985567 L 6.597565172328401 6.186077134846779 Q 6.604199203892365 6.192292780694759 6.604471154607754 6.200645071012522 Q 6.604743105323144 6.208997361330286 6.597905894890366 6.216294796050645 L 6.565584536480871 6.250791760183256 M 7.009468593350762 5.72836839524028 Q 6.963650164671367 5.791717178082305 6.909420940912263 5.820933830493017 Q 6.85519171715316 5.85015048290373 6.79230848120892 5.841693232554938 Q 6.729425245264681 5.833235982206147 6.658789076438799 5.786634601557127 Q 6.625845298837305 5.763929228544901 6.596012441801236 5.742351945271465 Q 6.566179584765166 5.720774661998028 6.534301352016682 5.696596061477848 Q 6.4686639763568134 5.644634543223517 6.441742879201635 5.586455864481276 Q 6.414821782046457 5.528277185739035 6.4251205667801905 5.466725880861057 Q 6.435419351513924 5.40517457598308 6.479106690487303 5.344772248156963 Q 6.522261257034176 5.285106534084824 6.577493480760508 5.256054347223627 Q 6.632725704486841 5.227002160362431 6.696674485284089 5.2339861832032675 Q 6.760623266081337 5.240970206044105 6.829990048726738 5.287775428020598 Q 6.863466598754736 5.309744187278847 6.893299455790806 5.331321470552283 Q 6.923132312826875 5.35289875382572 6.954477773148856 5.377813968099876 Q 7.021384534989205 5.429571645026736 7.048838404570889 5.487013710015 Q 7.076292274152571 5.5444557750032635 7.065523261878113 5.605106000577748 Q 7.054754249603654 5.665756226152233 7.009468593350762 5.72836839524028 M 6.946856424262715 5.683082738987388 Q 6.987347128677065 5.627100093685134 6.979302358679595 5.566866794998036 Q 6.971257588682126 5.506633496310939 6.89751746172851 5.448811481365056 Q 6.8654353876525525 5.423363494664395 6.839285599386368 5.404450073523481 Q 6.813135811120183 5.385536652382568 6.779659261092186 5.363567893124319 Q 6.727767367214761 5.328279823203456 6.6835728237708905 5.322681032082217 Q 6.63937828032702 5.31708224096098 6.6038678806138 5.335154728835992 Q 6.5683574809005805 5.353227216711003 6.54171885957535 5.390057904409855 Q 6.515080238250119 5.426888592108706 6.50903438869598 5.4662719770439026 Q 6.502988539141842 5.505655361979099 6.522142778539995 5.545874999537257 Q 6.541297017938149 5.586094637095416 6.59052504968305 5.625065775786164 Q 6.622403282431534 5.649244376306344 6.648553070697719 5.6681577974472575 Q 6.6747028589639035 5.687071218588171 6.7083832503193745 5.710309364026901 Q 6.786385556685027 5.762238468940968 6.846375638266696 5.750651926615305 Q 6.906365719848365 5.739065384289643 6.946856424262715 5.683082738987388 M 7.523471259247614 4.850265455852609 Q 7.491418144694169 4.9195763699001205 7.443578372647637 4.958049189700966 Q 7.395738600601104 4.9965220095018115 7.33259160730457 4.999871273329279 Q 7.2694446140080355 5.0032205371567455 7.189407010881744 4.9662068215414585 L 6.854404259652108 4.811283434533141 Q 6.845327830431601 4.807086002865428 6.842253994074599 4.799654922759684 Q 6.839180157717597 4.792223842653941 6.843377589385311 4.783147413433434 L 6.862838408935616 4.741065787047445 Q 6.86703584060333 4.731989357826937 6.874879485673642 4.729106313818468 Q 6.882723130743953 4.726223269809998 6.89179955996446 4.730420701477712 L 7.22845257105237 4.886107257880159 Q 7.309315304107799 4.923502558192511 7.365649306842221 4.903481062214254 Q 7.421983309576643 4.883459566235997 7.45251008534183 4.817449171905035 Q 7.48265527640995 4.75226390750321 7.461617858154024 4.695960885036291 Q 7.440580439898097 4.639657862569372 7.359717706842669 4.602262562257019 L 7.023064695754759 4.446576005854572 Q 7.013988266534252 4.4423785741868596 7.011105222525782 4.4345349291165475 Q 7.008222178517313 4.426691284046235 7.0120380254879615 4.418439984754865 L 7.031880429735332 4.375533228439739 Q 7.0356962767059805 4.367281929148369 7.043539921776292 4.3643988851399 Q 7.051383566846604 4.36151584113143 7.060459996067111 4.365713272799143 L 7.3954627472967465 4.520636659807461 Q 7.475500350423039 4.557650375422748 7.51384433841036 4.607934556989188 Q 7.552188326397681 4.658218738555629 7.554047142447902 4.719174075215795 Q 7.555905958498124 4.780129411875961 7.523471259247614 4.850265455852609 M 7.7778033120398815 4.186012448871497 Q 7.754549317942886 4.261607578736875 7.7153188103786565 4.305656484730419 Q 7.676088302814427 4.3497053907239644 7.630740097833577 4.365716331432436 Q 7.585391892852727 4.381727272140909 7.544018569957707 4.370902588660126 Q 7.5370672936482475 4.368764290352356 7.533156749021874 4.361379010975857 Q 7.5292462043955 4.353993731599358 7.5316517899917415 4.346173545751215 L 7.5452834417037735 4.301859159278408 Q 7.5484908891654285 4.291432244814218 7.55530807012835 4.2878225113129504 Q 7.562125251091273 4.284212777811683 7.569611101977675 4.284613257042087 Q 7.592068654636883 4.285814694733301 7.617566487276875 4.275586664777408 Q 7.643064319916867 4.265358634821514 7.666021116507173 4.238655299169588 Q 7.688977913097481 4.211951963517664 7.703946001251869 4.163293029351443 Q 7.726932708060394 4.088566809024749 7.711256102313662 4.045223710409735 Q 7.69557949656693 4.001880611794721 7.651265110094123 3.9882489600826894 Q 7.620853276240235 3.9788939049861964 7.59642504445643 3.9918287833657393 Q 7.571996812672625 4.004763661745281 7.545464709822289 4.038451797543301 Q 7.518932606971952 4.072139933341321 7.482844306005317 4.127617855279671 Q 7.445085233634586 4.1854352185455985 7.410532705320905 4.220460694190578 Q 7.375980177007223 4.2554861698355575 7.337549272796897 4.266015914321161 Q 7.299118368586571 4.276545658806765 7.249590524881668 4.261310283363906 Q 7.202669409792813 4.24687676978646 7.173492085764472 4.21031868340464 Q 7.144314761736132 4.173760597022821 7.137292824134986 4.1192883901835025 Q 7.1302708865338404 4.064816183344185 7.150852007746124 3.997910148865632 Q 7.16742381963134 3.944037757467317 7.194189685933512 3.908043704178356 Q 7.220955552235686 3.8720496508893945 7.253136470492063 3.8524638556231956 Q 7.285317388748439 3.8328780603569963 7.316964635832477 3.8273950573249196 Q 7.348611882916515 3.8219120542928433 7.374946456365461 3.829061763408297 Q 7.381028823136239 3.8309327744275956 7.385340298695319 3.837014689496071 Q 7.3896517742544 3.8430966045645465 7.386711614081216 3.8526546094900542 L 7.3725453877922416 3.8987068150402266 Q 7.370674376772943 3.904789181811004 7.365194083954679 3.910236854197238 Q 7.359713791136414 3.915684526583472 7.349086637057022 3.9162200045650186 Q 7.311857622240212 3.9104746829697934 7.276836663618254 3.9377470204398994 Q 7.241815704996295 3.9650193579100055 7.224709318534137 4.020629568385686 Q 7.207335644783507 4.077108688400048 7.218233248067486 4.11898170692847 Q 7.229130851351464 4.160854725456892 7.2751830569016365 4.175020951745867 Q 7.3047259812168415 4.184108719553888 7.329354904318151 4.173613402309523 Q 7.35398382741946 4.1631180850651575 7.379714068404383 4.132036677883186 Q 7.405444309389305 4.100955270701214 7.439594551663373 4.048685699629122 Q 7.480093544592086 3.9850532568808887 7.51501348000184 3.947287408975626 Q 7.549933415411593 3.9095215610703633 7.588197152141049 3.8979892634018416 Q 7.626460888870506 3.8864569657333194 7.675988732575408 3.901692341176179 Q 7.730730033512406 3.9185314403498657 7.760576027464227 3.9590997394633574 Q 7.790422021416048 3.9996680385768495 7.79493780191105 4.057649407407532 Q 7.79945358240605 4.1156307762382145 7.7778033120398815 4.186012448871497 M 7.88165370812173 3.7540218323644265 Q 7.8797780683874 3.762917145944406 7.872776948733098 3.7674799339440783 Q 7.865775829078796 3.7720427219437505 7.856880515498816 3.7701670822094195 L 7.792834257722961 3.7566624761222394 Q 7.783938944142982 3.754786836387909 7.77937615614331 3.747785716733607 Q 7.774813368143638 3.740784597079305 7.776689007877969 3.731889283499325 L 7.790193613965148 3.6678430257234704 Q 7.79206925369948 3.658947712143491 7.799164155340498 3.6539401584648195 Q 7.806259056981516 3.6489326047861486 7.815154370561496 3.650808244520479 L 7.879200628337351 3.6643128506076597 Q 7.888095941917331 3.66618849034199 7.892564947930286 3.673634375675291 Q 7.897033953943241 3.6810802610085918 7.895158314208911 3.689975574588572 L 7.88165370812173 3.7540218323644265" fill="#343432" fill-rule="nonzero"></path></g><g clip-path="url(#SvgjsClipPath1001)"><g clip-path="url(#b39272f4f-781a-40d9-a2bd-81d70f8fa22cfca361b6-a7a0-4e18-9936-cd0bae89ae03)"><path d=" M 1.7834047222573683 0.7231112489588388 C 1.3063872783054995 0.8599124353586044 1.1951393938502934 0.9706883590918794 1.058203361529976 1.4463573438382307 C 0.9211324832891069 0.9706883590918794 0.8100194447544525 0.8599124353586044 0.33293457784230773 0.7231112489588388 C 0.8100194447544524 0.5865797544001767 0.9211324832891068 0.47566898474635 1.058203361529976 -1.091594539386107e-15 C 1.1951393938502934 0.47566898474635 1.3063872783054995 0.5865797544001767 1.7834047222573683 0.7231112489588388" fill="#343432" transform="matrix(1,0,0,1,0,0)" fill-rule="nonzero" opacity="0.4"></path></g><g clip-path="url(#b39272f4f-781a-40d9-a2bd-81d70f8fa22cfca361b6-a7a0-4e18-9936-cd0bae89ae03)"><path d=" M 0.9565969603942212 3.882888282288073 C 0.6420014277469532 3.9730327801769274 0.5687126699270689 4.04618669207626 0.4782984801971106 4.359905726239941 C 0.38774944454660043 4.04618669207626 0.31459553264726775 3.9730327801769274 0 3.882888282288073 C 0.31459553264726775 3.7928112073594935 0.3877494445466003 3.719657295460161 0.4782984801971106 3.4058708383362037 C 0.5687126699270689 3.719657295460161 0.6420014277469532 3.7928112073594935 0.9565969603942212 3.882888282288073" fill="#343432" transform="matrix(1,0,0,1,0,0)" fill-rule="nonzero" opacity="0.4"></path></g><g clip-path="url(#b39272f4f-781a-40d9-a2bd-81d70f8fa22cfca361b6-a7a0-4e18-9936-cd0bae89ae03)"><path d=" M 5.408063066688812 2.4382839354170143 L 4.980196960778061 2.0872800042207698 C 4.980196960778061 2.0872800042207698 4.760667802119787 2.152006046085617 4.696346298016596 2.175469236261624 L 4.990580096660548 2.4166411651684556 L 4.345679481621731 2.4166411651684556 C 4.301517442641027 2.4812323611127516 4.265783273694811 2.561195991999948 4.2301839506691445 2.6644879671426 L 4.226745379695075 2.674264296382603 L 4.226745379695075 5.021190120625797 L 3.481047439043814 5.021190120625797 L 3.481047439043814 3.3958922402153733 C 3.4810475170709214 3.3630146935990664 3.467968531600099 3.331487650300549 3.4446953122242605 3.308265024879633 C 3.421422092848423 3.2850423994587166 3.3898666607269488 3.2720320565070633 3.3569891921368376 3.2721036851488514 L 2.30080851941449 3.2721036851488514 C 2.2679131812103197 3.2720141445214854 2.236333488452517 3.2850144224955793 2.21303497105065 3.3082370489612836 C 2.1897364536487833 3.331459675426988 2.1766332118862954 3.3629967849552034 2.1766154265863147 3.3958922402153733 L 2.1766154265863147 5.021190120625797 L 1.4102186371303578 5.021190120625797 L 1.4102186371303578 2.6644879671426 L 3.746424210689687 2.6644879671426 C 3.7108923106242964 2.5611959919999476 3.6750232957575273 2.481232361112751 3.6309961026973765 2.4166411651684556 L 0.6465187660854372 2.4166411651684556 L 2.818482008412716 0.6357310924412949 L 3.6796080570562872 1.3417169094900607 C 3.7127127305517456 1.2753727165785924 3.741974295311479 1.19534166273112 3.7725843192767297 1.097106409609159 L 2.897434294895774 0.379658689313493 C 2.8515677271633164 0.34198039654936657 2.785463712622392 0.34198039654936657 2.739597144889934 0.379658689313493 L 0.22087761786379007 2.444756539603499 C 0.18028199686096522 2.4779563424528215 0.16499565135636265 2.533124474183718 0.18271554980928598 2.5824827212419046 C 0.20043544826221027 2.6318409683000907 0.24732021964799003 2.6646893066091564 0.29976248138657297 2.6644879671426 L 1.1616976055534551 2.6644879671426 L 1.1616976055534551 5.145113521612869 C 1.1617154561780985 5.17803920547832 1.1748215002030096 5.209607266794389 1.19812875695906 5.232863938077292 C 1.221436013715111 5.256120609360194 1.2530324764089635 5.269158033587166 1.2859581213418907 5.269104345560217 L 4.351005895483525 5.269104345560217 C 4.383943211142935 5.269175953411687 4.4155570100155375 5.2561464438077055 4.438878861413143 5.23288782953428 C 4.4622007128107475 5.209629215260855 4.475316011314871 5.178050910290109 4.475333834232253 5.145113521612869 L 4.475333834232253 2.6644879671426 L 5.338078033922445 2.6644879671426 C 5.370980340038342 2.664541655939425 5.402556376363352 2.6515227329903843 5.425859752973856 2.6282952219575586 C 5.4491631295843606 2.6050677109247333 5.4622849483788505 2.5735342953743054 5.462338549710897 2.540631989115804 C 5.462383219866281 2.4996152576716657 5.4420421316464225 2.4612577770285053 5.408063066688813 2.4382839354170147 M 2.4250690352029416 3.5198830641627215 L 3.232796099308014 3.5198830641627215 L 3.232796099308014 4.15655807804788 C 3.2075730385327357 4.080710640726302 3.1366860604615967 4.0294797990486915 3.056754750027685 4.02933095200729 C 3.007389623311104 4.029241470557109 2.9600118021642507 4.0487705261337 2.925048472998497 4.083620050611392 C 2.8900851438327444 4.118469575089083 2.8704017275453273 4.165783474437934 2.8703302648648696 4.215148630527621 C 2.870315312264836 4.306417829393124 2.9365407262078342 4.3842064512914005 3.026643052652596 4.398754222748625 C 3.116745379097357 4.413301994205851 3.2040867351283535 4.360308007042954 3.232796099308015 4.273671760047082 L 3.232796099308015 5.021190120625797 L 2.425069035202941 5.021190120625797 Z" fill="#343432" transform="matrix(1,0,0,1,0,0)" fill-rule="nonzero" opacity="0.4"></path></g><g clip-path="url(#b39272f4f-781a-40d9-a2bd-81d70f8fa22cfca361b6-a7a0-4e18-9936-cd0bae89ae03)"><path d=" M 3.1088726983209427 1.9208801382598917 C 3.5301987770849323 2.0417695060345493 3.7160838785655406 2.1460054026210633 3.850188146554271 2.4166411651684556 C 3.885113239977178 2.486963312736201 3.9163974935451877 2.568612517630295 3.9475469011926454 2.6644879671426 C 3.9610989162080976 2.7062902025136473 3.9746509312235503 2.750519664454626 3.9883377921595544 2.7979854284888472 C 4.001957230135282 2.750519664454626 4.015509245150735 2.7062902025136473 4.0289938372059115 2.6644879671426 C 4.060008398932817 2.568612517630295 4.091427498421378 2.486963312736201 4.12628516888401 2.4166411651684556 C 4.217373588216727 2.232913598416676 4.3326668502884855 2.1258459374985748 4.529069933572132 2.038196089139927 C 4.606134377167466 2.003877802359503 4.695672068413838 1.972458702870942 4.801189001245594 1.9404327967398978 C 4.822831771494152 1.9341624614342405 4.844744233583814 1.9274875883669282 4.867802885998166 1.9208801382598917 C 4.8163591673076676 1.9061819329197494 4.768691134392618 1.8917534194207104 4.7239897117297085 1.877122637040844 C 4.375278161182844 1.7636497948965337 4.2191265851839 1.6449853848109806 4.097697833727036 1.3637642175002747 C 4.059401592290334 1.2750356017772133 4.024611344787979 1.17012547558794 3.9883377921595544 1.0439771169117638 C 3.9707436963290994 1.1054571451784292 3.9516347044439937 1.1664935133761496 3.9310282759250548 1.227030454060784 C 3.8992720616351138 1.319399909638744 3.8665045029410345 1.3976105435587676 3.829691566630403 1.4648986579140983 C 3.696868334886914 1.7064751245825855 3.5090953905185818 1.8062611057908915 3.1088726983209427 1.9208801382598917" fill="#343432" transform="matrix(1,0,0,1,0,0)" fill-rule="nonzero" opacity="0.4"></path></g></g><g transform="matrix(0.07515884867118497,-0.9971715737356445,0.9971715737356445,0.07515884867118497,-4.444569734848107,-0.0337184940964681)"><g clip-path="url(#SvgjsClipPath1002)"><path d=" M -2.240462650589228 2.5663038726372775 C -2.136325621561015 2.5663038726372775 -2.050066239084526 2.4802290336090644 -2.050066239084526 2.3759074611325754 C -2.050066239084526 2.27177085152129 -2.136325621561015 2.185511678753265 -2.240647194037504 2.185511678753265 C -2.344784432774181 2.185511678753265 -2.4308590620939303 2.27177085152129 -2.4308590620939303 2.3759074611325754 C -2.4308590620939303 2.4802290336090644 -2.3446000990343694 2.5663038726372775 -2.240462650589228 2.5663038726372775 Z M -2.240462650589228 2.5288897855839862 C -2.3252471534387578 2.5288897855839862 -2.3932589636331154 2.460692593107497 -2.3932589636331154 2.3759074611325754 C -2.3932589636331154 2.2911244262422934 -2.32543148717857 2.22311177721408 -2.240647194037504 2.22311177721408 C -2.1558620620625826 2.22311177721408 -2.087666966670733 2.2911244262422934 -2.087482423222457 2.3759074611325754 C -2.087482423222457 2.460692593107497 -2.1556775186143065 2.5288897855839862 -2.240462650589228 2.5288897855839862 Z" fill="#343432" transform="matrix(1,0,0,1,0,0)" fill-rule="nonzero"></path></g></g><g transform="matrix(-0.07515884867118497,-0.9971715737356445,-0.9971715737356445,0.07515884867118497,10.654232626565179,9.881421641377207)"><g clip-path="url(#SvgjsClipPath1003)"><path d=" M 7.702801273721386 2.5663038726372775 C 7.806938302749598 2.5663038726372775 7.893197685226088 2.4802290336090644 7.893197685226088 2.3759074611325754 C 7.893197685226088 2.27177085152129 7.806938302749598 2.185511678753265 7.7026167302731094 2.185511678753265 C 7.598479491536432 2.185511678753265 7.512404862216683 2.27177085152129 7.512404862216683 2.3759074611325754 C 7.512404862216683 2.4802290336090644 7.598663825276245 2.5663038726372775 7.702801273721386 2.5663038726372775 Z M 7.702801273721386 2.5288897855839862 C 7.618016770871856 2.5288897855839862 7.550004960677499 2.460692593107497 7.550004960677499 2.3759074611325754 C 7.550004960677499 2.2911244262422934 7.617832437132044 2.22311177721408 7.7026167302731094 2.22311177721408 C 7.787401862248031 2.22311177721408 7.8555969576398805 2.2911244262422934 7.855781501088157 2.3759074611325754 C 7.855781501088157 2.460692593107497 7.787586405696307 2.5288897855839862 7.702801273721386 2.5288897855839862 Z" fill="#343432" transform="matrix(1,0,0,1,0,0)" fill-rule="nonzero"></path></g></g></g><defs><clipPath id="SvgjsClipPath1001"><path d=" M 0 0 h 5.462338623132157 v 5.269104639163542 h -5.462338623132157 Z"></path></clipPath><clipPath id="b39272f4f-781a-40d9-a2bd-81d70f8fa22cfca361b6-a7a0-4e18-9936-cd0bae89ae03"><path d=" M -0.06742296027588252 -0.0674229602758836 L 5.529828932947056 -0.0674229602758836 L 5.529828932947056 5.3365273058361 L -0.06742296027588252 5.3365273058361 Z"></path></clipPath><clipPath id="SvgjsClipPath1002"><path d=" M -2.5340545001190087 2.0751498733896288 h 0.587183699059561 v 0.6081545454545454 h -0.587183699059561 Z"></path></clipPath><clipPath id="SvgjsClipPath1003"><path d=" M 7.409209424191605 2.0751498733896288 h 0.587183699059561 v 0.6081545454545454 h -0.587183699059561 Z"></path></clipPath></defs></svg>